<?xml version="1.0" encoding="utf-8"?>
<!-- Generator: Adobe Illustrator 22.0.1, SVG Export Plug-In . SVG Version: 6.00 Build 0)  -->
<svg version="1.1" id="Layer_1" xmlns="http://www.w3.org/2000/svg" xmlns:xlink="http://www.w3.org/1999/xlink" x="0px" y="0px"
	 viewBox="0 0 60 52" style="enable-background:new 0 0 60 52;" xml:space="preserve">
<title>heart</title>
<desc>Created with Sketch.</desc>
<g>
	<g transform="translate(-10.000000, -14.000000)">
		<g transform="translate(10.000000, 14.000000)">
			<path d="M32.1,51.3C31.5,51.8,30.7,52,30,52c-0.7,0-1.5-0.2-2.1-0.7C22.1,47,6.1,34.6,2.3,27.4c-4.7-8.7-1.9-19.9,6.2-25
				C11.1,0.8,14,0,16.8,0c5,0,9.9,2.4,13.2,6.8C33.3,2.4,38.2,0,43.2,0c2.9,0,5.7,0.8,8.4,2.4c8.1,5.1,10.8,16.2,6.2,25
				C53.9,34.6,37.9,47,32.1,51.3z M50.2,4.6c-2.2-1.4-4.6-2.1-7.1-2.1c-4.3,0-8.4,2.1-11.2,5.8L30,11l-2-2.7
				c-2.7-3.7-6.8-5.8-11.2-5.8c-2.5,0-4.9,0.7-7.1,2.1c-7,4.4-9.3,14.1-5.3,21.7c3.6,6.8,20,19.3,24.9,23c0.2,0.2,0.5,0.2,0.6,0.2
				s0.4,0,0.6-0.2c4.9-3.7,21.3-16.3,24.9-23C59.6,18.7,57.2,8.9,50.2,4.6z"/>
		</g>
	</g>
</g>
</svg>
